<?xml version="1.0" encoding="UTF-8" standalone="no"?>
<!-- Created with Inkscape (http://www.inkscape.org/) -->

<svg
   width="55.24398mm"
   height="32.769295mm"
   viewBox="0 0 55.24398 32.769297"
   version="1.1"
   id="svg1"
   inkscape:version="1.4.3 (0d15f75, 2025-12-25)"
   sodipodi:docname="图2.svg"
   xml:space="preserve"
   inkscape:export-filename="图2.png"
   inkscape:export-xdpi="500"
   inkscape:export-ydpi="500"
   xmlns:inkscape="http://www.inkscape.org/namespaces/inkscape"
   xmlns:sodipodi="http://sodipodi.sourceforge.net/DTD/sodipodi-0.dtd"
   xmlns="http://www.w3.org/2000/svg"
   xmlns:svg="http://www.w3.org/2000/svg"><sodipodi:namedview
     id="namedview1"
     pagecolor="#ffffff"
     bordercolor="#000000"
     borderopacity="0.25"
     inkscape:showpageshadow="2"
     inkscape:pageopacity="0.0"
     inkscape:pagecheckerboard="0"
     inkscape:deskcolor="#d1d1d1"
     inkscape:document-units="mm"
     inkscape:zoom="2.0485264"
     inkscape:cx="289.2323"
     inkscape:cy="163.28811"
     inkscape:window-width="1920"
     inkscape:window-height="1009"
     inkscape:window-x="-8"
     inkscape:window-y="-8"
     inkscape:window-maximized="1"
     inkscape:current-layer="layer1"
     showgrid="true"
     showguides="true"><inkscape:grid
       id="grid7"
       units="mm"
       originx="-152"
       originy="-83.000008"
       spacingx="15.000001"
       spacingy="40.000003"
       empcolor="#0099e5"
       empopacity="0.30196078"
       color="#0099e5"
       opacity="0.14902"
       empspacing="5"
       enabled="true"
       visible="true" /><inkscape:page
       x="0"
       y="-1.055295e-22"
       width="55.24398"
       height="32.769295"
       id="page2"
       margin="0"
       bleed="0" /></sodipodi:namedview><defs
     id="defs1"><style
       id="style1">
.MsftOfcResponsive_Fill_00b0f0 {
 fill:#00B0F0; 
}
.MsftOfcThm_Accent1_Stroke_v2 {
 stroke:#4472C4; 
}
</style><marker
       id="arr"
       markerWidth="1.5"
       markerHeight="1.2"
       refX="1.5"
       refY="0.60000002"
       orient="auto"><polygon
         points="0,0 1.5,0.6 0,1.2 "
         fill="#c62828"
         id="polygon1-7" /></marker></defs><g
     inkscape:label="图层 1"
     inkscape:groupmode="layer"
     id="layer1"
     transform="translate(-152,-82.999996)"><g
       id="g90"
       transform="translate(31.243984,1.7434148)"><g
         transform="matrix(0.017,0,0,-0.017,129,90)"
         id="g1-6"
         style="font-size:2.12px;font-family:Arial, Helvetica, sans-serif"><path
           d="m 0,0 h -0.082 c -5.983,-1.214 -36.12,-26.579 -31.991,-23.055 -6.149,-5.338 -26.655,-24.591 -47.282,-30.739 -48.859,-14.237 -86.877,-2.102 -108.476,12.862 -8.736,5.905 -33.003,40.69 -41.174,48.616 -10.839,10.678 -23.297,18.039 -30.092,25.157 -6.228,6.472 -13.833,17.472 -18.928,26.291 -5.744,9.544 -14.48,28.149 -17.958,38.827 -5.177,15.937 -10.598,37.372 -14.319,62.61 -0.726,4.531 -1.213,9.384 -1.375,14.561 v 14.076 c 1.294,32.76 11.325,71.75 31.709,101.923 24.189,35.593 73.936,61.964 99.904,73.369 37.937,16.987 61.557,29.444 103.864,32.356 46.756,3.237 72.398,-14.398 76.2,-17.471 M -0.483,245.021 0,379.383 c 0.242,-0.243 0.404,-0.405 0.486,-0.487 5.096,4.045 38.664,17.958 84.369,15.614 25.077,-1.294 64.471,-19.657 95.209,-29.121 34.381,-10.598 60.266,-23.54 78.225,-36.888 34.783,-25.643 45.459,-55.168 50.637,-77.414 2.994,-12.942 5.826,-26.29 6.472,-41.82 V 197.699 C 314.508,174.239 308.037,145.443 290.08,106.13 286.033,97.151 280.613,84.854 276.004,76.522 265.729,58.483 244.211,36.805 230.703,23.78 225.932,19.009 213.959,5.42 206.922,-5.662 203.525,-10.921 193.654,-19.495 190.42,-22.731 153.531,-59.698 81.773,-55.438 61.955,-41.683 45.453,-30.036 35.742,-22.332 29.029,-17.802 12.445,-6.963 3.801,1.132 0,0"
           fill="#ffffff"
           stroke="#555555"
           stroke-width="13"
           id="path1-3" /></g><line
         x1="129"
         y1="83.5"
         x2="129"
         y2="90"
         stroke="#555555"
         stroke-width="0.12"
         stroke-dasharray="0.5, 0.4"
         id="line1"
         style="font-size:2.12px;font-family:Arial, Helvetica, sans-serif" /><ellipse
         cx="126.2"
         cy="85.5"
         rx="1.4"
         ry="1"
         fill="#ef9a9a"
         stroke="#c62828"
         stroke-width="0.2"
         opacity="0.4"
         id="ellipse1"
         style="font-size:2.12px;font-family:Arial, Helvetica, sans-serif" /><ellipse
         cx="131.8"
         cy="85.5"
         rx="1.4"
         ry="1"
         fill="#ef9a9a"
         stroke="#c62828"
         stroke-width="0.2"
         opacity="0.4"
         id="ellipse2-8"
         style="font-size:2.12px;font-family:Arial, Helvetica, sans-serif" /><g
         transform="rotate(135,46.013691,67.386876)"
         id="g2-59"
         style="font-size:2.12px;font-family:Arial, Helvetica, sans-serif"><text
           x="0"
           y="0"
           text-anchor="middle"
           font-size="1.5px"
           id="text2-3">💉</text></g><g
         transform="rotate(135,48.813691,68.546674)"
         id="g3-025"
         style="font-size:2.12px;font-family:Arial, Helvetica, sans-serif"><text
           x="0"
           y="0"
           text-anchor="middle"
           font-size="1.5px"
           id="text3-15">💉</text></g><text
         x="126.2"
         y="86.800003"
         text-anchor="middle"
         fill="#c62828"
         font-weight="bold"
         id="text4-7"
         style="font-size:2.12px;font-family:Arial, Helvetica, sans-serif">MOp</text><text
         x="131.8"
         y="86.800003"
         text-anchor="middle"
         fill="#c62828"
         font-weight="bold"
         id="text5-7"
         style="font-size:2.12px;font-family:Arial, Helvetica, sans-serif">MOp</text><text
         x="121.5"
         y="93"
         fill="#333333"
         id="text6-9"
         style="font-size:2.12px;font-family:Arial, Helvetica, sans-serif">hSyn-DIO-</text><text
         x="121.5"
         y="95"
         fill="#333333"
         id="text7-41"
         style="font-size:2.12px;font-family:Arial, Helvetica, sans-serif">hM4D(Gi)-mCherry</text><text
         x="129"
         y="97.5"
         text-anchor="middle"
         fill="#333333"
         font-style="italic"
         id="text8-7"
         style="font-size:2.12px;font-family:Arial, Helvetica, sans-serif">cFos-CreER mice</text><g
         transform="translate(121,80)"
         id="g8-8"
         style="font-size:2.12px;font-family:Arial, Helvetica, sans-serif"><path
           d="m 15.40768,27.68311 -2.369788,-0.384419 -0.724101,-0.516573 c -0.07896,-0.04806 -0.184317,-0.01196 -0.210645,0.07209 l -0.157985,0.57663 c -0.566121,-0.432479 -1.421875,-0.720797 -2.3829499,-0.756831 -1.342878,-0.03607 -2.54093,0.852944 -2.659417,2.078292 -0.03946,0.372413 0.02635,0.720806 0.157985,1.033144 -0.737272,-0.432471 -1.224384,-1.177297 -1.224384,-2.030241 0,-1.321461 1.171724,-2.390642 2.619923,-2.402665 0.131652,0 0.263309,-0.08409 0.276467,-0.204227 0.02631,-0.156171 -0.10532,-0.276304 -0.263293,-0.276304 -1.724683,0 -3.133392,1.261403 -3.15972,2.835144 -0.02631,1.609783 1.461369,2.931245 3.225538,2.931245 h 1.382369 c 0.2238189,0 0.3949659,-0.156179 0.3949659,-0.360399 0,-0.204227 -0.171147,-0.360406 -0.3949659,-0.360406 h -0.631935 c 0.184313,-0.120133 0.302795,-0.312339 0.302795,-0.54059 0,-0.288322 -0.210645,-0.55262 -0.513448,-0.636707 -0.105329,-0.02404 -0.157989,-0.132147 -0.131657,-0.228259 0.02635,-0.0961 0.144835,-0.144153 0.250155,-0.120125 0.473947,0.132147 0.803094,0.528584 0.803094,0.973069 0,0.06011 -0.01311,0.120133 -0.02635,0.180199 0.4081199,0.02404 0.7504299,0.336378 0.7504299,0.720805 0,0.0841 -0.01311,0.168185 -0.05264,0.240266 0.342294,0.07209 0.750422,0.120133 1.23755,0.120133 h 1.18489 c 0.223819,0 0.394962,-0.156179 0.394962,-0.360399 0,-0.204227 -0.171143,-0.360398 -0.394962,-0.360398 h -0.394966 l 2.962228,-1.465623 c 0.118495,-0.06011 0.184317,-0.168193 0.197479,-0.276312 0,-0.228247 -0.197479,-0.432471 -0.447626,-0.480531 z"
           fill="#333333"
           stroke-width="0.125762"
           id="path8-57" /></g><text
         x="125.92251"
         y="113.27399"
         fill="#c62828"
         id="text9-88"
         style="font-size:2.12px;font-family:Arial, Helvetica, sans-serif">💉 CNO i.p.</text><text
         x="142"
         y="86.5"
         font-weight="bold"
         fill="#c62828"
         id="text10-4"
         style="font-size:2.12px;font-family:Arial, Helvetica, sans-serif">Exp</text><rect
         x="148"
         y="84.5"
         width="8"
         height="3.2"
         fill="#ff9800"
         rx="0.30000001"
         id="rect11-3"
         style="font-size:2.12px;font-family:Arial, Helvetica, sans-serif" /><text
         x="152"
         y="86.800003"
         text-anchor="middle"
         font-size="2.5px"
         id="text12-8"
         style="font-family:Arial, Helvetica, sans-serif">🔊💧</text><text
         x="152"
         y="89.800003"
         text-anchor="middle"
         fill="#1565c0"
         id="text13-4"
         style="font-size:2.12px;font-family:Arial, Helvetica, sans-serif">TM</text><line
         x1="156"
         y1="86.099998"
         x2="160.5"
         y2="86.099998"
         stroke="#999999"
         stroke-width="0.15"
         stroke-dasharray="0.5, 0.3"
         id="line13"
         style="font-size:2.12px;font-family:Arial, Helvetica, sans-serif" /><text
         x="165"
         y="82.800003"
         text-anchor="middle"
         fill="#c62828"
         font-weight="bold"
         id="text15-3"
         style="font-size:2.12px;font-family:Arial, Helvetica, sans-serif">CNO</text><line
         x1="165"
         y1="83.099998"
         x2="165"
         y2="84.300003"
         stroke="#c62828"
         stroke-width="0.3"
         marker-end="url(#arr)"
         id="line15"
         style="font-size:2.12px;font-family:Arial, Helvetica, sans-serif" /><rect
         x="160.5"
         y="84.5"
         width="8"
         height="3.2"
         fill="#4caf50"
         rx="0.30000001"
         id="rect15-0"
         style="font-size:2.12px;font-family:Arial, Helvetica, sans-serif" /><text
         x="164.5"
         y="86.800003"
         text-anchor="middle"
         font-size="2.5px"
         id="text16-4"
         style="font-family:Arial, Helvetica, sans-serif">💡💧</text><text
         x="170"
         y="86.5"
         fill="#888888"
         id="text17-1"
         style="font-size:2.12px;font-family:Arial, Helvetica, sans-serif">…</text><text
         x="142"
         y="97"
         font-weight="bold"
         fill="#2e7d32"
         id="text18-7"
         style="font-size:2.12px;font-family:Arial, Helvetica, sans-serif">Ctrl</text><rect
         x="148"
         y="95"
         width="8"
         height="3.2"
         fill="#bdbdbd"
         rx="0.30000001"
         id="rect19-1"
         style="font-size:2.12px;font-family:Arial, Helvetica, sans-serif" /><text
         x="152"
         y="97.199997"
         text-anchor="middle"
         fill="#ffffff"
         font-weight="bold"
         id="text20-3"
         style="font-size:2.12px;font-family:Arial, Helvetica, sans-serif">h.c.</text><text
         x="152"
         y="100.3"
         text-anchor="middle"
         fill="#1565c0"
         id="text21-13"
         style="font-size:2.12px;font-family:Arial, Helvetica, sans-serif">TM</text><line
         x1="156"
         y1="96.599998"
         x2="160.5"
         y2="96.599998"
         stroke="#999999"
         stroke-width="0.15"
         stroke-dasharray="0.5, 0.3"
         id="line21-1"
         style="font-size:2.12px;font-family:Arial, Helvetica, sans-serif" /><text
         x="165"
         y="93.300003"
         text-anchor="middle"
         fill="#c62828"
         font-weight="bold"
         id="text23-1"
         style="font-size:2.12px;font-family:Arial, Helvetica, sans-serif">CNO</text><line
         x1="165"
         y1="93.599998"
         x2="165"
         y2="94.800003"
         stroke="#c62828"
         stroke-width="0.3"
         marker-end="url(#arr)"
         id="line23-5"
         style="font-size:2.12px;font-family:Arial, Helvetica, sans-serif" /><rect
         x="160.5"
         y="95"
         width="8"
         height="3.2"
         fill="#4caf50"
         rx="0.30000001"
         id="rect23"
         style="font-size:2.12px;font-family:Arial, Helvetica, sans-serif" /><text
         x="164.5"
         y="97.199997"
         text-anchor="middle"
         font-size="2.5px"
         id="text24"
         style="font-family:Arial, Helvetica, sans-serif">💡💧</text><text
         x="170"
         y="97"
         fill="#888888"
         id="text25"
         style="font-size:2.12px;font-family:Arial, Helvetica, sans-serif">…</text><line
         x1="141"
         y1="102.5"
         x2="176"
         y2="102.5"
         stroke="#cccccc"
         stroke-width="0.1"
         id="line25-0"
         style="font-size:2.12px;font-family:Arial, Helvetica, sans-serif" /><text
         x="141"
         y="105.5"
         fill="#c62828"
         font-weight="bold"
         id="text26-5"
         style="font-size:2.12px;font-family:Arial, Helvetica, sans-serif">Exp:</text><text
         x="146"
         y="105.5"
         fill="#555555"
         id="text27-1"
         style="font-size:2.12px;font-family:Arial, Helvetica, sans-serif">🔊💧 neurons labeled by TM</text><text
         x="146"
         y="108"
         fill="#555555"
         id="text28-2"
         style="font-size:2.12px;font-family:Arial, Helvetica, sans-serif">→ silenced by CNO in 💡💧</text><text
         x="141"
         y="111.5"
         fill="#2e7d32"
         font-weight="bold"
         id="text29-2"
         style="font-size:2.12px;font-family:Arial, Helvetica, sans-serif">Ctrl:</text><text
         x="146"
         y="111.5"
         fill="#555555"
         id="text30-1"
         style="font-size:2.12px;font-family:Arial, Helvetica, sans-serif">TM in h.c. → no labeling</text><text
         x="146"
         y="114"
         fill="#555555"
         id="text31-5"
         style="font-size:2.12px;font-family:Arial, Helvetica, sans-serif">→ CNO has no effect</text></g></g></svg>
